<?xml version="1.0" encoding="UTF-8"?>
<svg id="Camada_1" data-name="Camada 1" xmlns="http://www.w3.org/2000/svg" viewBox="0 0 191.58 191.32">
  <defs>
    <style>
      .cls-1 {
        fill: #fff;
      }
    </style>
  </defs>
  <path d="M88.84.24c76.84-5.3,128.41,77.29,89.41,144.07-35.85,61.38-124.46,62.85-162.98,3.2C-24.05,86.64,16.91,5.2,88.84.24ZM92.25,37.82c-43.82,4.35-38.36,71.29,6.09,68.16,44.93-3.17,39.75-72.7-6.09-68.16ZM155.47,157.14c.73-1.24-1.9-5.72-2.65-7.11-25.7-47.84-96.97-43.71-116.87,6.36,3.37,3.71,7.74,7.33,12.04,10.21,28.98,19.37,66.14,19.38,95.22.23,4.38-2.88,8.11-6.51,12.25-9.68Z"/>
  <path class="cls-1" d="M155.47,157.14c-4.13,3.16-7.87,6.8-12.25,9.68-29.08,19.15-66.25,19.14-95.22-.23-4.31-2.88-8.67-6.5-12.04-10.21,19.9-50.06,91.16-54.2,116.87-6.36.75,1.39,3.38,5.87,2.65,7.11Z"/>
  <path class="cls-1" d="M92.25,37.82c45.84-4.55,51.02,64.99,6.09,68.16-44.45,3.14-49.91-63.81-6.09-68.16Z"/>
</svg>